<?xml version="1.0" encoding="UTF-8" standalone="no"?>
<svg
   xmlns:dc="http://purl.org/dc/elements/1.1/"
   xmlns:cc="http://creativecommons.org/ns#"
   xmlns:rdf="http://www.w3.org/1999/02/22-rdf-syntax-ns#"
   xmlns:svg="http://www.w3.org/2000/svg"
   xmlns="http://www.w3.org/2000/svg"
   xmlns:sodipodi="http://sodipodi.sourceforge.net/DTD/sodipodi-0.dtd"
   xmlns:inkscape="http://www.inkscape.org/namespaces/inkscape"
   inkscape:version="1.0 (6e3e5246a0, 2020-05-07)"
   height="61.438576"
   width="51.454273"
   sodipodi:docname="seekglobe.svg"
   id="svg4"
   version="1.1"
   viewBox="0 0 51.454273 61.438576"
   role="img"
   class="svg-inline--fa fa-globe-americas fa-w-16"
   data-icon="globe-americas"
   data-prefix="fas"
   focusable="false"
   aria-hidden="true"
   inkscape:export-filename="/home/matheus/MEGAsync/ProgramStudio/OculiNuboWeb/client/src/images/SeekGlobe.png"
   inkscape:export-xdpi="123.3"
   inkscape:export-ydpi="123.3">
  <metadata
     id="metadata10">
    <rdf:RDF>
      <cc:Work
         rdf:about="">
        <dc:format>image/svg+xml</dc:format>
        <dc:type
           rdf:resource="http://purl.org/dc/dcmitype/StillImage" />
        <dc:title></dc:title>
      </cc:Work>
    </rdf:RDF>
  </metadata>
  <defs
     id="defs8">
    <filter
       id="filter1326"
       inkscape:label="Drop Shadow"
       style="color-interpolation-filters:sRGB">
      <feFlood
         id="feFlood1316"
         result="flood"
         flood-color="rgb(0,0,0)"
         flood-opacity="0.498039" />
      <feComposite
         id="feComposite1318"
         result="composite1"
         operator="in"
         in2="SourceGraphic"
         in="flood" />
      <feGaussianBlur
         id="feGaussianBlur1320"
         result="blur"
         stdDeviation="0"
         in="composite1" />
      <feOffset
         id="feOffset1322"
         result="offset"
         dy="14.3"
         dx="9.9" />
      <feComposite
         id="feComposite1324"
         result="composite2"
         operator="over"
         in2="offset"
         in="SourceGraphic" />
    </filter>
  </defs>
  <sodipodi:namedview
     inkscape:pagecheckerboard="true"
     inkscape:current-layer="svg4"
     inkscape:window-maximized="1"
     inkscape:window-y="0"
     inkscape:window-x="0"
     inkscape:cy="42.490598"
     inkscape:cx="76.752782"
     inkscape:zoom="5.4469319"
     showgrid="false"
     id="namedview6"
     inkscape:window-height="704"
     inkscape:window-width="1366"
     inkscape:pageshadow="2"
     inkscape:pageopacity="0"
     guidetolerance="10"
     gridtolerance="10"
     objecttolerance="10"
     borderopacity="1"
     bordercolor="#666666"
     pagecolor="#ffffff"
     inkscape:document-rotation="0" />
  <g
     transform="scale(0.10047308)"
     id="g18">
    <circle
       style="fill:#1a1a1a;stroke:#1a1a1a;stroke-width:14.623"
       id="path12"
       cx="256.57318"
       cy="355.73917"
       r="219.47845" />
    <path
       fill="currentColor"
       d="m 256.06,107.43292 c -136.97,0 -247.9999996,111.03 -247.9999996,248 0,136.97 111.0299996,248 247.9999996,248 136.97,0 248,-111.03 248,-248 0,-136.97 -111.03,-248 -248,-248 z m 82.29,357.6 c -3.9,3.88 -7.99,7.95 -11.31,11.28 -2.99,3 -5.1,6.7 -6.17,10.71 -1.51,5.66 -2.73,11.38 -4.77,16.87 l -17.39,46.85 c -13.76,3 -28,4.69 -42.65,4.69 v -27.38 c 1.69,-12.62 -7.64,-36.26 -22.63,-51.25 -6,-6 -9.37,-14.14 -9.37,-22.63 v -32.01 c 0,-11.64 -6.27,-22.34 -16.46,-27.97 -14.37,-7.95 -34.81,-19.06 -48.81,-26.11 -11.48,-5.78 -22.1,-13.14 -31.65,-21.75 l -0.8,-0.72 a 114.792,114.792 0 0 1 -18.06,-20.74 c -9.38,-13.77 -24.66,-36.42 -34.59,-51.14 20.47,-45.5 57.36,-82.04 103.2,-101.89 l 24.01,12.01 c 10.64,5.32 23.16,-2.41 23.16,-14.31 v -11.3 c 7.99,-1.29 16.12,-2.11 24.39,-2.42 l 28.3,28.3 c 6.25,6.25 6.25,16.38 0,22.63 l -4.69,4.68 -10.34,10.34 c -3.12,3.12 -3.12,8.19 0,11.31 l 4.69,4.69 c 3.12,3.12 3.12,8.19 0,11.31 l -8,8 a 8.008,8.008 0 0 1 -5.66,2.34 h -8.99 c -2.08,0 -4.08,0.81 -5.58,2.27 l -9.92,9.65 a 8.008,8.008 0 0 0 -1.58,9.31 l 15.59,31.19 c 2.66,5.32 -1.21,11.58 -7.15,11.58 h -5.64 c -1.93,0 -3.79,-0.7 -5.24,-1.96 l -9.28,-8.06 a 16.017,16.017 0 0 0 -15.55,-3.1 l -31.17,10.39 a 11.95,11.95 0 0 0 -8.17,11.34 c 0,4.53 2.56,8.66 6.61,10.69 l 11.08,5.54 c 9.41,4.71 19.79,7.16 30.31,7.16 10.52,0 22.59,27.29 32,32 h 66.75 c 8.49,0 16.62,3.37 22.63,9.37 l 13.69,13.69 a 30.503,30.503 0 0 1 8.93,21.57 46.536,46.536 0 0 1 -13.72,32.98 z m 86.71,-91.35 c -5.79,-1.45 -10.84,-5 -14.15,-9.97 l -17.98,-26.97 a 23.97,23.97 0 0 1 0,-26.62 l 19.59,-29.38 c 2.32,-3.47 5.5,-6.29 9.24,-8.15 l 12.98,-6.49 c 13.52,26.92 21.32,57.2 21.32,89.33 0,8.67 -0.74,17.16 -1.82,25.54 z"
       id="path2"
       style="fill:#00ffff;stroke:#1a1a1a;stroke-width:16.12;stroke-miterlimit:4;stroke-dasharray:none;stroke-opacity:1" />
    <path
       id="path1137"
       d="M 249.50101,183.7761 C 201.2034,113.7589 192.23847,106.57299 192.23847,80.840614 c 0,-35.247771 28.57376,-63.821535 63.82153,-63.821535 35.24777,0 63.82154,28.573764 63.82154,63.821535 0,25.732376 -8.96494,32.918286 -57.26255,102.935486 -3.16947,4.57853 -9.94884,4.5782 -13.11798,0 z M 256.06,107.43292 c 14.6866,0 26.5923,-11.905706 26.5923,-26.592306 0,-14.6866 -11.9057,-26.592301 -26.5923,-26.592301 -14.6866,0 -26.59231,11.905701 -26.59231,26.592301 0,14.6866 11.90571,26.592306 26.59231,26.592306 z"
       fill="currentColor"
       style="fill:#ff0000;stroke-width:0.332403;filter:url(#filter1326)" />
  </g>
</svg>
